<mxfile host="drawio-plugin" modified="2022-01-30T07:41:57.832Z" agent="5.0 (Macintosh; Intel Mac OS X 12_0_1) AppleWebKit/537.36 (KHTML, like Gecko) Chrome/89.0.4389.114 Safari/537.36" etag="PuHuXQEi5G1-DPToX0HP" version="15.5.4" type="embed"><diagram id="WiSGqWt8uOLtH7JA5PiH" name="Page-1"><mxGraphModel dx="628" dy="483" grid="1" gridSize="10" guides="1" tooltips="1" connect="1" arrows="1" fold="1" page="1" pageScale="1" pageWidth="827" pageHeight="1169" math="0" shadow="0"><root><mxCell id="0"/><mxCell id="1" parent="0"/><mxCell id="6d0TgMTnvp4evVOTkukG-5" style="edgeStyle=orthogonalEdgeStyle;rounded=0;orthogonalLoop=1;jettySize=auto;html=1;" parent="1" source="6d0TgMTnvp4evVOTkukG-1" target="6d0TgMTnvp4evVOTkukG-4" edge="1"><mxGeometry relative="1" as="geometry"/></mxCell><mxCell id="6d0TgMTnvp4evVOTkukG-1" value="START" style="rounded=1;whiteSpace=wrap;html=1;" parent="1" vertex="1"><mxGeometry x="340" y="30" width="120" height="60" as="geometry"/></mxCell><mxCell id="6d0TgMTnvp4evVOTkukG-2" value="END" style="whiteSpace=wrap;html=1;rounded=1;" parent="1" vertex="1"><mxGeometry x="480" y="555" width="120" height="60" as="geometry"/></mxCell><mxCell id="6d0TgMTnvp4evVOTkukG-7" value="" style="edgeStyle=orthogonalEdgeStyle;rounded=0;orthogonalLoop=1;jettySize=auto;html=1;" parent="1" source="6d0TgMTnvp4evVOTkukG-4" target="6d0TgMTnvp4evVOTkukG-6" edge="1"><mxGeometry relative="1" as="geometry"/></mxCell><mxCell id="6d0TgMTnvp4evVOTkukG-4" value="Input &amp;nbsp;N" style="shape=parallelogram;perimeter=parallelogramPerimeter;whiteSpace=wrap;html=1;fixedSize=1;" parent="1" vertex="1"><mxGeometry x="340" y="130" width="120" height="60" as="geometry"/></mxCell><mxCell id="6d0TgMTnvp4evVOTkukG-13" value="" style="edgeStyle=orthogonalEdgeStyle;rounded=0;orthogonalLoop=1;jettySize=auto;html=1;" parent="1" source="6d0TgMTnvp4evVOTkukG-6" target="6d0TgMTnvp4evVOTkukG-12" edge="1"><mxGeometry relative="1" as="geometry"/></mxCell><mxCell id="6d0TgMTnvp4evVOTkukG-6" value="Input &amp;nbsp;K" style="shape=parallelogram;perimeter=parallelogramPerimeter;whiteSpace=wrap;html=1;fixedSize=1;" parent="1" vertex="1"><mxGeometry x="340" y="230" width="120" height="60" as="geometry"/></mxCell><mxCell id="6d0TgMTnvp4evVOTkukG-17" value="YES" style="edgeStyle=orthogonalEdgeStyle;rounded=0;orthogonalLoop=1;jettySize=auto;html=1;" parent="1" source="6d0TgMTnvp4evVOTkukG-12" target="6d0TgMTnvp4evVOTkukG-18" edge="1"><mxGeometry relative="1" as="geometry"><mxPoint x="300" y="350" as="targetPoint"/></mxGeometry></mxCell><mxCell id="6d0TgMTnvp4evVOTkukG-41" value="NO" style="edgeStyle=orthogonalEdgeStyle;rounded=0;orthogonalLoop=1;jettySize=auto;html=1;" parent="1" source="6d0TgMTnvp4evVOTkukG-12" target="6d0TgMTnvp4evVOTkukG-19" edge="1"><mxGeometry relative="1" as="geometry"/></mxCell><mxCell id="6d0TgMTnvp4evVOTkukG-12" value="If there are less than n repetitions" style="rhombus;whiteSpace=wrap;html=1;" parent="1" vertex="1"><mxGeometry x="360" y="310" width="80" height="80" as="geometry"/></mxCell><mxCell id="3" style="edgeStyle=orthogonalEdgeStyle;rounded=0;orthogonalLoop=1;jettySize=auto;html=1;exitX=1;exitY=0;exitDx=0;exitDy=0;entryX=0.375;entryY=0.129;entryDx=0;entryDy=0;entryPerimeter=0;" edge="1" parent="1" source="6d0TgMTnvp4evVOTkukG-18" target="6d0TgMTnvp4evVOTkukG-12"><mxGeometry relative="1" as="geometry"><Array as="points"><mxPoint x="330" y="320"/><mxPoint x="330" y="320"/></Array></mxGeometry></mxCell><mxCell id="6d0TgMTnvp4evVOTkukG-18" value="Input value into list_n" style="shape=parallelogram;perimeter=parallelogramPerimeter;whiteSpace=wrap;html=1;fixedSize=1;" parent="1" vertex="1"><mxGeometry x="170" y="320" width="150" height="60" as="geometry"/></mxCell><mxCell id="6d0TgMTnvp4evVOTkukG-23" value="YES" style="edgeStyle=orthogonalEdgeStyle;rounded=0;orthogonalLoop=1;jettySize=auto;html=1;entryX=1;entryY=0.5;entryDx=0;entryDy=0;" parent="1" source="6d0TgMTnvp4evVOTkukG-19" target="6d0TgMTnvp4evVOTkukG-22" edge="1"><mxGeometry relative="1" as="geometry"/></mxCell><mxCell id="6d0TgMTnvp4evVOTkukG-30" style="edgeStyle=orthogonalEdgeStyle;rounded=0;orthogonalLoop=1;jettySize=auto;html=1;" parent="1" source="6d0TgMTnvp4evVOTkukG-19" target="6d0TgMTnvp4evVOTkukG-28" edge="1"><mxGeometry relative="1" as="geometry"/></mxCell><mxCell id="6d0TgMTnvp4evVOTkukG-40" value="NO" style="edgeLabel;html=1;align=center;verticalAlign=middle;resizable=0;points=[];" parent="6d0TgMTnvp4evVOTkukG-30" vertex="1" connectable="0"><mxGeometry x="-0.3079" y="1" relative="1" as="geometry"><mxPoint as="offset"/></mxGeometry></mxCell><mxCell id="6d0TgMTnvp4evVOTkukG-19" value="If there are less than k repetitions" style="rhombus;whiteSpace=wrap;html=1;" parent="1" vertex="1"><mxGeometry x="360" y="420" width="80" height="80" as="geometry"/></mxCell><mxCell id="2" style="edgeStyle=orthogonalEdgeStyle;rounded=0;orthogonalLoop=1;jettySize=auto;html=1;entryX=0.379;entryY=0.119;entryDx=0;entryDy=0;entryPerimeter=0;" edge="1" parent="1" source="6d0TgMTnvp4evVOTkukG-22" target="6d0TgMTnvp4evVOTkukG-19"><mxGeometry relative="1" as="geometry"><Array as="points"><mxPoint x="320" y="430"/></Array></mxGeometry></mxCell><mxCell id="6d0TgMTnvp4evVOTkukG-22" value="Input value into list_K" style="shape=parallelogram;perimeter=parallelogramPerimeter;whiteSpace=wrap;html=1;fixedSize=1;" parent="1" vertex="1"><mxGeometry x="170" y="430" width="150" height="60" as="geometry"/></mxCell><mxCell id="6d0TgMTnvp4evVOTkukG-27" value="YES" style="edgeStyle=orthogonalEdgeStyle;rounded=0;orthogonalLoop=1;jettySize=auto;html=1;entryX=1;entryY=0.5;entryDx=0;entryDy=0;" parent="1" source="6d0TgMTnvp4evVOTkukG-28" edge="1"><mxGeometry relative="1" as="geometry"><mxPoint x="310" y="585" as="targetPoint"/></mxGeometry></mxCell><mxCell id="6d0TgMTnvp4evVOTkukG-39" value="NO" style="edgeStyle=orthogonalEdgeStyle;rounded=0;orthogonalLoop=1;jettySize=auto;html=1;" parent="1" source="6d0TgMTnvp4evVOTkukG-28" target="6d0TgMTnvp4evVOTkukG-2" edge="1"><mxGeometry relative="1" as="geometry"/></mxCell><mxCell id="6d0TgMTnvp4evVOTkukG-28" value="If there are less than k repetitions" style="rhombus;whiteSpace=wrap;html=1;" parent="1" vertex="1"><mxGeometry x="360" y="545" width="80" height="80" as="geometry"/></mxCell><mxCell id="6d0TgMTnvp4evVOTkukG-33" value="" style="edgeStyle=orthogonalEdgeStyle;rounded=0;orthogonalLoop=1;jettySize=auto;html=1;" parent="1" source="6d0TgMTnvp4evVOTkukG-31" target="6d0TgMTnvp4evVOTkukG-32" edge="1"><mxGeometry relative="1" as="geometry"><Array as="points"><mxPoint x="220" y="555"/><mxPoint x="220" y="555"/></Array></mxGeometry></mxCell><mxCell id="6d0TgMTnvp4evVOTkukG-35" value="YES" style="edgeLabel;html=1;align=center;verticalAlign=middle;resizable=0;points=[];" parent="6d0TgMTnvp4evVOTkukG-33" vertex="1" connectable="0"><mxGeometry x="0.1857" relative="1" as="geometry"><mxPoint as="offset"/></mxGeometry></mxCell><mxCell id="6d0TgMTnvp4evVOTkukG-36" style="edgeStyle=orthogonalEdgeStyle;rounded=0;orthogonalLoop=1;jettySize=auto;html=1;" parent="1" source="6d0TgMTnvp4evVOTkukG-31" target="6d0TgMTnvp4evVOTkukG-34" edge="1"><mxGeometry relative="1" as="geometry"><Array as="points"><mxPoint x="210" y="615"/><mxPoint x="210" y="615"/></Array></mxGeometry></mxCell><mxCell id="6d0TgMTnvp4evVOTkukG-38" value="NO" style="edgeLabel;html=1;align=center;verticalAlign=middle;resizable=0;points=[];" parent="6d0TgMTnvp4evVOTkukG-36" vertex="1" connectable="0"><mxGeometry x="-0.0762" relative="1" as="geometry"><mxPoint as="offset"/></mxGeometry></mxCell><mxCell id="6d0TgMTnvp4evVOTkukG-31" value="&lt;span&gt;If i-element in list_k exist in list_n&lt;/span&gt;" style="rhombus;whiteSpace=wrap;html=1;" parent="1" vertex="1"><mxGeometry x="230" y="545" width="80" height="80" as="geometry"/></mxCell><mxCell id="4" style="edgeStyle=orthogonalEdgeStyle;rounded=0;orthogonalLoop=1;jettySize=auto;html=1;" edge="1" parent="1" source="6d0TgMTnvp4evVOTkukG-32" target="6d0TgMTnvp4evVOTkukG-31"><mxGeometry relative="1" as="geometry"><Array as="points"><mxPoint x="270" y="520"/></Array></mxGeometry></mxCell><mxCell id="6d0TgMTnvp4evVOTkukG-32" value="print YES" style="shape=parallelogram;perimeter=parallelogramPerimeter;whiteSpace=wrap;html=1;fixedSize=1;" parent="1" vertex="1"><mxGeometry x="80" y="520" width="120" height="60" as="geometry"/></mxCell><mxCell id="5" style="edgeStyle=orthogonalEdgeStyle;rounded=0;orthogonalLoop=1;jettySize=auto;html=1;entryX=0.5;entryY=1;entryDx=0;entryDy=0;" edge="1" parent="1" source="6d0TgMTnvp4evVOTkukG-34" target="6d0TgMTnvp4evVOTkukG-31"><mxGeometry relative="1" as="geometry"><mxPoint x="270" y="660" as="targetPoint"/><Array as="points"><mxPoint x="270" y="640"/></Array></mxGeometry></mxCell><mxCell id="6d0TgMTnvp4evVOTkukG-34" value="print NO" style="shape=parallelogram;perimeter=parallelogramPerimeter;whiteSpace=wrap;html=1;fixedSize=1;" parent="1" vertex="1"><mxGeometry x="60" y="585" width="120" height="60" as="geometry"/></mxCell></root></mxGraphModel></diagram></mxfile>